<?xml version="1.0" standalone="no"?>
<!DOCTYPE svg PUBLIC "-//W3C//DTD SVG 1.1//EN" "http://www.w3.org/Graphics/SVG/1.1/DTD/svg11.dtd" >
<svg xmlns="http://www.w3.org/2000/svg">
<metadata>
Created by FontForge 20120731 at Fri Nov 27 16:18:40 2015
 By Ads
</metadata>
<defs>
<font id="iconfont" horiz-adv-x="1024" >
  <font-face 
    font-family="iconfont"
    font-weight="500"
    font-stretch="normal"
    units-per-em="1024"
    panose-1="2 0 6 3 0 0 0 0 0 0"
    ascent="896"
    descent="-128"
    x-height="792"
    bbox="-0.5 -128 1040 896"
    underline-thickness="50"
    underline-position="-100"
    unicode-range="U+0078-E61D"
  />
<missing-glyph horiz-adv-x="374" 
d="M34 0v682h272v-682h-272zM68 34h204v614h-204v-614z" />
    <glyph glyph-name=".notdef" horiz-adv-x="374" 
d="M34 0v682h272v-682h-272zM68 34h204v614h-204v-614z" />
    <glyph glyph-name=".null" horiz-adv-x="0" 
 />
    <glyph glyph-name="nonmarkingreturn" horiz-adv-x="341" 
 />
    <glyph glyph-name="x" unicode="x" horiz-adv-x="1001" 
d="M281 543q-27 -1 -53 -1h-83q-18 0 -36.5 -6t-32.5 -18.5t-23 -32t-9 -45.5v-76h912v41q0 16 -0.5 30t-0.5 18q0 13 -5 29t-17 29.5t-31.5 22.5t-49.5 9h-133v-97h-438v97zM955 310v-52q0 -23 0.5 -52t0.5 -58t-10.5 -47.5t-26 -30t-33 -16t-31.5 -4.5q-14 -1 -29.5 -0.5
t-29.5 0.5h-32l-45 128h-439l-44 -128h-29h-34q-20 0 -45 1q-25 0 -41 9.5t-25.5 23t-13.5 29.5t-4 30v167h911zM163 247q-12 0 -21 -8.5t-9 -21.5t9 -21.5t21 -8.5q13 0 22 8.5t9 21.5t-9 21.5t-22 8.5zM316 123q-8 -26 -14 -48q-5 -19 -10.5 -37t-7.5 -25t-3 -15t1 -14.5
t9.5 -10.5t21.5 -4h37h67h81h80h64h36q23 0 34 12t2 38q-5 13 -9.5 30.5t-9.5 34.5q-5 19 -11 39h-368zM336 498v228q0 11 2.5 23t10 21.5t20.5 15.5t34 6h188q31 0 51.5 -14.5t20.5 -52.5v-227h-327z" />
    <glyph glyph-name="uniE600" unicode="&#xe600;" 
d="M483 304zM330 858l-330 -228l182 -115l330 231zM512 285l182 -115l330 230l-182 115zM1024 630l-330 228l-182 -112l330 -231zM0 400l330 -230l182 115l-330 230zM1024 262zM694 147l-182 115l-182 -115l-148 103v-112l330 -228l330 228v112z" />
    <glyph glyph-name="uniE601" unicode="&#xe601;" 
d="M150 592q15 14 34 14t34 -14l294 -294l294 294q15 14 34 14t34 -14q7 -7 10.5 -16t3.5 -17.5t-3.5 -17.5t-10.5 -16l-362 -365l-362 365q-14 14 -14 33.5t14 33.5z" />
    <glyph glyph-name="uniE602" unicode="&#xe602;" 
d="M874 176q-15 -14 -34 -14t-34 14l-294 294l-294 -294q-15 -14 -34 -14t-34 14q-14 14 -14 33.5t14 33.5l362 365l362 -365q7 -7 10.5 -16t3.5 -17.5t-3.5 -17.5t-10.5 -16z" />
    <glyph glyph-name="uniE603" unicode="&#xe603;" 
d="M250 227l211 -211q14 -14 33.5 -19t38.5 0t33 19l212 211q6 7 8 15t0 16t-8 14q-10 10 -23 10t-22 -10l-186 -186v650q0 14 -8.5 23t-23 9t-23.5 -9t-9 -23v-650l-185 186q-10 9 -23 10q-13 0 -22 -10q-12 -7 -12.5 -21t9.5 -24z" />
    <glyph glyph-name="uniE604" unicode="&#xe604;" 
d="M774 541l-211 211q-21 22 -52.5 22t-52.5 -22l-212 -211q-3 -4 -5.5 -8.5t-3.5 -9.5t0 -9.5t3.5 -9t5.5 -8.5q10 -10 23 -10t22 10l186 186v-650q0 -14 8.5 -23t23.5 -9q5 0 10 1.5t9 4.5t7 6.5t4.5 8.5t1.5 11v650l185 -186q10 -9 23 -10q13 0 22 10q12 7 12.5 21
t-9.5 24z" />
    <glyph glyph-name="uniE605" unicode="&#xe605;" 
d="M426 384l-372 371q-14 17 -6.5 36t29.5 19h870q22 0 29.5 -20t-6.5 -35l-372 -371v-320q0 -19 -19 -29l-105 -54q-17 -7 -31 2.5t-14 26.5v374h-3z" />
    <glyph glyph-name="uniE606" unicode="&#xe606;" horiz-adv-x="1028" 
d="M842 832h-660q-48 0 -90.5 -24.5t-67 -67t-24.5 -90.5v-535q0 -72 54 -125.5t128 -53.5h663q74 0 128 54t54 128v532q-2 74 -56.5 128t-128.5 54zM515 640q13 0 22.5 -9t9.5 -23q0 -13 -9 -22.5t-23 -9.5q-12 0 -22 9t-10 23q3 14 11.5 23t20.5 9zM291 698q37 0 63.5 -26
t26.5 -64q0 -37 -26 -63.5t-64 -26.5q-36 0 -62.5 26t-26.5 64q0 25 12 45.5t32.5 32.5t44.5 12zM214 426q10 0 17.5 -5t11 -12t3.5 -15q0 -10 -4.5 -17.5t-12 -11t-15.5 -3.5q-9 0 -16.5 4.5t-11.5 12t-4 15.5q-2 12 8 22t24 10zM989 115q0 -30 -12 -58t-32 -48t-48 -32
t-59 -12h-659q-56 0 -98 37t-49 91l80 83q31 33 77 42.5t89 -7.5l32 -13q54 -21 109 -8.5t96 53.5l74 77q24 25 55.5 38t65.5 10.5t64 -19.5l221 -125v-109h-6z" />
    <glyph glyph-name="uniE607" unicode="&#xe607;" 
d="M653 211h-285q-18 -2 -19 -19q0 -8 5 -13.5t14 -5.5h285q8 0 13.5 5t5.5 14q0 19 -19 19zM912 896h-800q-46 0 -79 -33t-33 -79v-800q0 -46 33 -79t79 -33h800q46 0 79 33t33 79v800q0 46 -33 79t-79 33zM992 -16q0 -34 -23 -57t-57 -23h-800q-34 0 -57 23t-23 57v800
q0 34 23 57t57 23h800q34 0 57 -23t23 -57v-800zM557 611q-17 17 -43.5 17t-43.5 -17l-108 -109q-3 -2 -5 -6t-2.5 -8t0 -8t2.5 -8t5 -8q2 -3 6 -4.5t8 -2t8 0t8 2t8 4.5l86 86v-272q0 -16 17 -23q5 -2 9 -2q10 0 18 8t8 17v272l86 -86q6 -6 19 -6q7 0 19 6q8 7 8 18t-8 20z
" />
    <glyph glyph-name="uniE608" unicode="&#xe608;" 
d="M912 896h-800q-46 0 -79 -33t-33 -79v-800q0 -46 33 -79t79 -33h800q46 0 79 33t33 79v800q0 46 -33 79t-79 33zM653 176h-285q-18 2 -19 19q0 19 19 19h285q8 0 13.5 -5t5.5 -14q0 -19 -19 -19zM666 467q-7 -6 -20 -6q-7 0 -19 6l-86 87v-272q0 -10 -8 -18t-17.5 -8
t-17.5 8t-8 18v272l-87 -87q-5 -5 -11.5 -6.5t-13.5 0t-13 6.5q-7 7 -7 18t7 21l109 108q16 17 42.5 17t43.5 -17l109 -108q12 -24 -3 -39z" />
    <glyph glyph-name="uniE609" unicode="&#xe609;" 
d="M374 22l-345 346q-15 14 -15 33.5t15 33.5q14 15 33.5 15t33.5 -15l278 -278l551 553q5 5 10.5 8.5t11 5t12 1.5t12 -1.5t11 -5t10.5 -8.5q14 -14 14 -33t-14 -34z" />
    <glyph glyph-name="uniE60A" unicode="&#xe60a;" horiz-adv-x="1040" 
d="M774 400h266v-32h-266v32zM787 54h253v-32h-253v32zM787 227h253v-32h-253v32zM371 224q73 0 134 35.5t96.5 96.5t35.5 133.5t-35.5 133.5t-96.5 96.5t-134 35.5q-110 0 -187.5 -77.5t-77.5 -188t77.5 -188t187.5 -77.5zM371 723q63 0 117 -31.5t85.5 -85t31.5 -116.5
q0 -96 -69 -165t-165 -69q-63 0 -116.5 31.5t-85 85.5t-31.5 117q0 96 68.5 164.5t164.5 68.5zM582 230l-12 7l-13 -10q-69 -54 -154 -64h-61q-42 5 -81 21t-75 43l-13 10l-13 -7q-71 -27 -115.5 -88t-44.5 -120h32q0 48 39 100.5t99 75.5q83 -62 172 -67h68q88 9 169 71
q42 -16 75 -47.5t49.5 -66.5t16.5 -66h32q-3 60 -50 121.5t-120 86.5z" />
    <glyph glyph-name="uniE60B" unicode="&#xe60b;" 
d="M400 602q-12 0 -16 -13l-58 -163h39l9 35h68l12 -35h39l-64 172h-29v4zM384 496l26 74l25 -74h-51zM931 730h-838q-19 0 -36 -7.5t-29.5 -20t-20 -29.5t-7.5 -36v-503q0 -38 27 -65t66 -27h838q39 0 66 27t27 65v503q0 38 -27 65.5t-66 27.5zM992 131q0 -13 -5 -24.5
t-13.5 -19t-19.5 -12.5t-23 -5h-838q-17 0 -31.5 8.5t-22 22.5t-7.5 30v506q0 17 8.5 31t22.5 22t30 8h838q26 0 43.5 -18.5t17.5 -42.5v-506zM662 429v176h-35v-119l-70 119h-19q-3 0 -6 -1t-4 -2t-3 -4q-6 -7 -7 -12v-154h36v118l70 -118h38v-3zM781 314h-135
q-6 0 -11.5 -2.5t-10 -6.5t-7.5 -10t-3 -13v-23h77v-16h-77v-22h77v-16h-77v-26q0 -6 2.5 -11.5t6.5 -10t10 -7.5t13 -3h135q12 0 22 9t10 23v26h-67v16h67v22h-67v16h67v23q0 9 -4 16.5t-11.5 11.5t-16.5 4zM838 602h-44l-68 -71v71h-19q-6 0 -13 -7q-6 -7 -6 -13v-153h35
v61q2 8 10 12q6 4 22 -12l45 -61h45l-77 105zM272 525q13 7 16 13q2 3 2 4l2 5q1 3 1.5 6.5t0.5 6.5q0 23 -12 32q-20 10 -45 10h-64q-10 0 -13 -3.5t-3 -12.5v-154h80q31 0 48 13q16 16 16 38q-1 13 -7 26q-19 13 -22 16zM189 573h41q16 0 20 -3q5 -7 6 -16q0 -7 -6 -13
q-4 -3 -20 -3h-41v35zM253 467q-13 -6 -23 -6h-41v45h41q7 0 13.5 -2t9.5 -5q6 -7 6 -19q0 -10 -6 -13z" />
    <glyph glyph-name="uniE60C" unicode="&#xe60c;" 
d="M720 22q14 15 14 34t-14 34l-294 294l294 294q14 15 14 34t-14 34q-6 5 -12.5 8.5t-14 4.5t-14.5 0t-14 -4.5t-12 -8.5l-365 -362l362 -362q16 -14 36 -14t34 14z" />
    <glyph glyph-name="uniE60D" unicode="&#xe60d;" 
d="M717 -112l-496 496l496 496q5 5 10.5 8t12 4.5t13 1.5t13 -1.5t13 -4.5t11.5 -8q6 -6 9.5 -13t4.5 -14.5t0 -15t-4.5 -15t-9.5 -12.5l-425 -426l425 -426q7 -7 11 -16t4 -18.5t-4 -19t-11 -16.5q-9 -10 -22 -13.5t-26.5 -0.5t-24.5 14z" />
    <glyph glyph-name="uniE60E" unicode="&#xe60e;" 
d="M304 22q-14 15 -14 34t14 34l294 294l-294 294q-14 15 -14 34t14 34q5 4 10.5 7.5t11 5t12 1.5t12 -1.5t11 -5t10.5 -7.5l365 -362l-365 -362q-14 -14 -33.5 -14t-33.5 14z" />
    <glyph glyph-name="uniE60F" unicode="&#xe60f;" 
d="M307 879l496 -495l-496 -496q-14 -14 -35 -14t-38 14q-15 14 -15 35t15 35l425 426l-425 425q-15 14 -15 35t15 35q14 17 35.5 17t37.5 -17z" />
    <glyph glyph-name="uniE610" unicode="&#xe610;" 
d="M416 634h-32q-15 0 -19 -13l-64 -183h41l13 42h77l13 -42h41zM365 509l29 83l28 -83h-57zM918 746q31 0 52.5 -22.5t21.5 -51.5v-576q0 -20 -9.5 -37t-26.5 -27t-38 -10h-812q-21 0 -38 10.5t-26.5 27.5t-9.5 36v576q0 31 21 52.5t53 21.5h812zM918 778h-812
q-44 0 -75 -31.5t-31 -74.5v-576q0 -43 31 -74.5t75 -31.5h812q44 0 75 31.5t31 74.5v576q0 21 -8.5 40.5t-22.5 34t-33.5 23t-41.5 8.5zM560 573v-135h-42v173q0 3 7 16q7 6 16 7h22l80 -135v135h42v-199h-45zM854 240h-76v-16h76v-26h-76v-19h76v-29q0 -9 -4.5 -17
t-12.5 -13t-18 -5h-150q-15 0 -25 10.5t-10 24.5v29h86v19h-86v26h86v19h-86v26q0 9 4.5 17t12.5 13t18 5h150q15 0 25 -10.5t10 -24.5v-29zM842 435l-52 71q-7 9 -12.5 12t-12.5 0q-9 -6 -10 -12v-71h-41v176q0 3 6 16q7 6 16 7h19v-80l77 80h51l-80 -80l87 -119h-48z
M259 525q-4 7 -22 19q6 3 19 16q6 13 6 26q0 22 -16 38q-19 10 -48 10h-70q-3 0 -16 -7q-6 -6 -6 -16v-176h89q33 0 55 16l6 7q4 3 6 7.5t3.5 9.5t2.5 10t1 11q0 19 -10 29zM144 598h48q19 0 22 -3q7 -6 7 -15.5t-7 -16.5q-7 -6 -22 -6h-48v41zM218 477q-13 -7 -26 -7h-48
v52h48q6 0 11 -1.5t7 -2.5l8 -3q9 -5 9 -19q0 -10 -9 -19z" />
    <glyph glyph-name="uniE611" unicode="&#xe611;" 
d="M698 694q14 0 23 9t9 23v122q0 14 -9 23t-23.5 9t-23 -9t-8.5 -23v-122q0 -9 4 -16.5t11 -11.5t17 -4zM326 694q10 0 17 4t11 11.5t4 16.5v122q0 14 -8.5 23t-23 9t-23.5 -9t-9 -23v-122q0 -13 10 -22.5t22 -9.5zM928 784h-166v-64q0 -17 -9 -31t-23.5 -22t-31.5 -8
q-18 0 -32.5 8.5t-23 22.5t-8.5 30v64h-240v-61q0 -24 -15.5 -43t-39.5 -24q-30 -5 -51.5 14.5t-21.5 49.5v64h-170q-41 0 -68.5 -27.5t-27.5 -68.5v-106h1024v106q0 41 -27.5 68.5t-68.5 27.5zM0 -16q0 -41 27.5 -68.5t68.5 -27.5h832q41 0 68.5 27.5t27.5 68.5v566h-1024
v-566zM352 419h320v-48q-44 -61 -83 -134q-19 -35 -45 -99q-13 -32 -26 -103h-102q6 35 18 69t33 85q31 62 103 166h-218v64z" />
    <glyph glyph-name="uniE612" unicode="&#xe612;" 
d="M557 384l147 147q10 10 10 22.5t-10 22.5t-22.5 10t-22.5 -10l-147 -147l-147 147q-10 10 -22.5 10t-22.5 -10t-10 -22.5t10 -22.5l147 -147l-147 -147q-5 -5 -7.5 -11t-2.5 -12t2.5 -11.5t7.5 -10.5q10 -10 22.5 -10t22.5 10l147 147l147 -147q10 -10 23 -10q2 0 4 0.5
t4 1.5l6 2q2 1 4 2.5t4 3.5q10 10 10 22.5t-10 22.5z" />
    <glyph glyph-name="uniE613" unicode="&#xe613;" horiz-adv-x="1028" 
d="M581 384l432 429q9 9 12.5 21t0 24.5t-13 21.5t-21.5 12.5t-24 0t-21 -12.5l-432 -429l-429 432q-15 12 -35.5 12t-35.5 -12q-12 -14 -12 -35t12 -35l432 -429l-432 -429q-14 -14 -14 -33.5t14 -33.5q12 -16 36 -16q22 1 35 13l429 432l428 -429q3 -2 5.5 -4t5.5 -3.5
t6 -2.5l6 -2h6q3 -1 7 -1q22 1 35 13q14 14 14 33.5t-14 33.5z" />
    <glyph glyph-name="uniE614" unicode="&#xe614;" 
d="M832 -128h-640q-36 0 -61 25t-25 61v685q0 36 25 61.5t61 25.5h64v-32h-64q-22 0 -38 -16.5t-16 -38.5v-685q0 -21 16 -37.5t38 -16.5h640q7 0 14 2t13 5.5t11 9t8.5 11t5.5 12.5t2 14v685q0 9 -2.5 17t-8 15t-12 12t-15 8t-16.5 3h-61v32h61q36 0 61 -25.5t25 -61.5
v-685q0 -36 -25 -61t-61 -25zM688 790h-70q0 44 -31.5 75t-74.5 31q-21 0 -40.5 -8.5t-34 -22.5t-23 -33.5t-8.5 -41.5h-70q-7 0 -13.5 -2.5t-11.5 -7.5t-7.5 -11.5t-2.5 -13.5v-105q0 -6 1.5 -11.5t5 -9.5t8 -7.5t9.5 -5.5t11 -2h355q15 0 25 10.5t10 25.5v105
q-1 6 -3 11.5t-6 9.5t-8.5 7.5t-9.5 5t-11 1.5zM512 765q-14 0 -24.5 10.5t-10.5 24.5t10.5 24.5t24.5 10.5t24.5 -10.5t10.5 -24.5t-10.5 -24.5t-24.5 -10.5zM653 339h-285q-7 0 -13 2.5t-10 6.5t-6.5 10t-2.5 13t2.5 13t6.5 10.5t10 6.5t13 2h285q9 0 16.5 -4t11.5 -11
t4 -17q0 -14 -9 -23t-23 -9zM653 128h-285q-14 0 -23 9t-9 23q0 10 4 17t11 11t17 4h285q14 0 23 -9t9 -23q0 -10 -4 -17t-11.5 -11t-16.5 -4z" />
    <glyph glyph-name="uniE615" unicode="&#xe615;" 
d="M691 790h-70q0 44 -32 75t-77 31q-13 0 -25 -3t-23 -8t-20.5 -12.5t-17 -16.5t-12.5 -19.5t-8 -22t-3 -24.5h-70q-7 0 -13.5 -2.5t-11.5 -7.5t-7.5 -11.5t-2.5 -13.5v-105q0 -6 1.5 -11.5t5 -9.5t7.5 -7.5t9.5 -5.5t11.5 -2h358q10 0 18 5t12.5 13t4.5 18v105
q0 10 -4.5 18t-12.5 12.5t-18 4.5zM512 762q-9 0 -17.5 4.5t-13 12.5t-4.5 18q0 14 10.5 24.5t24.5 10.5t24.5 -10.5t10.5 -24.5q0 -10 -4.5 -18t-13 -12.5t-17.5 -4.5zM835 736h-61v-22v0v-103q0 -19 -12.5 -32t-31.5 -13h-426q-37 0 -46 32q-2 7 -2 13v125h-64
q-41 0 -68.5 -27t-27.5 -66v-675q0 -41 27 -68.5t66 -27.5h643q38 0 65.5 27t27.5 66v678q1 19 -5.5 36t-19 29.5t-29.5 20t-36 7.5zM656 147h-285q-9 0 -15.5 6.5t-6.5 16.5q0 6 3 11t8 8t11 3h285q6 0 11.5 -3t8 -8t2.5 -11q0 -10 -6 -16.5t-16 -6.5zM656 358h-285
q-9 0 -15.5 6.5t-6.5 16.5q0 5 1.5 9t4.5 7t7 4.5t9 1.5h285q6 0 11.5 -3t8 -8t2.5 -11q0 -8 -6.5 -15.5t-15.5 -7.5z" />
    <glyph glyph-name="uniE616" unicode="&#xe616;" 
d="M512 896q-163 0 -285 -109q-118 -107 -137 -265q-4 -26 -4 -52q0 -104 52 -201q16 -29 96 -119l278 -278l278 278q80 93 96 119q52 97 52 201q0 117 -57.5 215t-155.5 154.5t-213 56.5zM858 285q-8 -13 -37.5 -50t-52.5 -62l-256 -256l-256 256q-6 7 -14.5 17t-16 19
t-16 19t-15.5 18.5t-13 16t-9.5 13t-5.5 9.5q-48 86 -48 185q0 107 53 198t143.5 143.5t197.5 52.5t197.5 -52.5t143.5 -143.5t53 -198q0 -99 -48 -185zM512 643q-58 0 -98 -40t-40 -97.5t40 -97.5t98 -40t98 40t40 98q0 37 -18.5 69t-50 50t-69.5 18zM512 400
q-43 0 -74.5 31t-31.5 74.5t31.5 74.5t74.5 31q11 0 21 -2t19.5 -6t18 -10t16 -13t13 -15.5t9.5 -18t6.5 -20t2.5 -20.5q0 -44 -31.5 -75t-74.5 -31z" />
    <glyph glyph-name="uniE617" unicode="&#xe617;" 
d="M944 464h-352v352q0 34 -23 57t-57 23t-57 -23t-23 -57v-352h-352q-34 0 -57 -23t-23 -57t23 -57t57 -23h352v-352q0 -34 23 -57t57 -23t57 23t23 57v352h352q34 0 57 23t23 57t-23 57t-57 23z" />
    <glyph glyph-name="uniE618" unicode="&#xe618;" 
d="M1024 -106l-230 231q62 66 94 150t31 169t-35.5 169t-99.5 149q-33 33 -72 58.5t-80 42t-84.5 25t-86.5 8.5q-89 0 -175 -34.5t-152 -99.5q-88 -89 -119 -207t0 -236.5t119 -206.5q122 -121 294 -133q17 -1 33 -1q85 0 166 31.5t147 92.5l231 -230zM157 134
q-60 60 -92.5 138.5t-32.5 162.5q0 174 125 304q40 40 88.5 68t103 42.5t112.5 14.5q174 0 304 -125q82 -82 111 -192t0 -220.5t-111 -192.5q-60 -60 -139 -92t-165 -32q-165 0 -286 108q-10 8 -18 16z" />
    <glyph glyph-name="uniE619" unicode="&#xe619;" 
d="M912 896h-800q-46 0 -79 -33t-33 -79v-800q0 -46 33 -79t79 -33h800q46 0 79 33t33 79v800q0 46 -33 79t-79 33zM768 64h-512q-14 0 -23 9t-9 23t9 23t23 9h512q14 0 23 -9t9 -23t-9 -23t-23 -9zM787 416q-13 -13 -35 -13q-23 1 -35 13l-157 157v-317q0 -19 -14.5 -33.5
t-33.5 -14.5t-33.5 14.5t-14.5 33.5v317l-157 -157q-14 -14 -35 -14t-35.5 14t-14.5 33.5t15 33.5l195 195q31 32 78.5 32t78.5 -32l195 -195q14 -14 14.5 -34.5t-11.5 -32.5z" />
    <glyph glyph-name="uniE61B" unicode="&#xe61b;" 
d="M509 157q101 0 185.5 49t133.5 133.5t49 185.5q0 43 -10 84.5t-28 78t-43.5 68t-57.5 57t-68 43.5t-77.5 27.5t-83.5 9.5q-74 0 -142.5 -29.5t-117.5 -79t-78.5 -117.5t-29.5 -142q0 -100 49 -184.5t133.5 -134t185.5 -49.5zM509 861q91 0 168.5 -45t122.5 -122.5
t45 -168.5t-45 -168.5t-122.5 -122.5t-168.5 -45t-168.5 45t-122.5 122.5t-45 168.5q0 68 26.5 130.5t71.5 107.5t107 71.5t131 26.5zM800 160l-16 6l-13 -9q-32 -26 -66.5 -45t-72 -30.5t-75.5 -14.5h-87q-117 10 -217 90l-13 9l-22 -6q-49 -18 -91 -52t-69 -73.5
t-42.5 -81t-15.5 -78.5h32q0 69 55.5 144t142.5 109q100 -81 237 -96h90q63 7 122 31.5t111 64.5q90 -32 146 -108t56 -148h32q0 52 -26.5 109t-79 106.5t-118.5 72.5z" />
    <glyph glyph-name="uniE61C" unicode="&#xe61c;" 
d="M509 525zM141 525q0 100 49 184.5t134 134t185 49.5t184.5 -49.5t134 -134t49.5 -184.5q0 -75 -29.5 -143t-78.5 -117.5t-117 -78.5t-143 -29q-34 0 -66.5 6t-62 17t-57 27t-51.5 36.5t-44.5 44.5t-36.5 51.5t-27 57t-17 62t-6 66.5zM803 147l-6 3l-7 -6
q-50 -40 -110 -64t-123 -29h-93q-131 15 -234 93l-6 3l-6 -3q-96 -34 -157 -114.5t-61 -154.5h16h992h16q0 74 -62.5 156t-158.5 116z" />
    <glyph glyph-name="uniE61D" unicode="&#xe61d;" 
d="M768 128h-512q-14 0 -23 -9t-9 -23t9 -23t23 -9h512q14 0 23 9t9 23t-9 23t-23 9zM912 896h-800q-46 0 -79 -33t-33 -79v-800q0 -46 33 -79t79 -33h800q46 0 79 33t33 79v800q0 46 -33 79t-79 33zM992 -16q0 -34 -23 -57t-57 -23h-800q-34 0 -57 23t-23 57v800
q0 34 23 57t57 23h800q34 0 57 -23t23 -57v-800zM592 678q-20 21 -49 28t-58 0t-50 -28l-195 -195q-14 -14 -14 -33.5t14 -33.5t33.5 -14t33.5 14l157 157v-317q0 -19 14.5 -33.5t33.5 -14.5t33.5 14.5t14.5 33.5v317l157 -157q7 -7 16 -10t19 -3q23 1 35 13q10 9 13 21.5
t0 24.5t-13 21z" />
  </font>
</defs>
</svg>
